<mxfile host="app.diagrams.net" agent="Mozilla/5.0 (Windows NT 10.0; Win64; x64) AppleWebKit/537.36 (KHTML, like Gecko) Chrome/129.0.0.0 Safari/537.36" version="24.7.16">
  <diagram name="Страница — 1" id="xHwK_b2retfKlfM4JfdF">
    <mxGraphModel dx="875" dy="442" grid="1" gridSize="10" guides="1" tooltips="1" connect="1" arrows="1" fold="1" page="1" pageScale="1" pageWidth="1200" pageHeight="1920" math="0" shadow="0">
      <root>
        <mxCell id="0" />
        <mxCell id="1" parent="0" />
        <mxCell id="ZmueGVc2QgfomNV0Ne6T-3" value="Управление&lt;div&gt;водителями&lt;/div&gt;" style="html=1;whiteSpace=wrap;" vertex="1" parent="1">
          <mxGeometry x="720" y="100" width="110" height="50" as="geometry" />
        </mxCell>
        <mxCell id="ZmueGVc2QgfomNV0Ne6T-6" value="&lt;span style=&quot;text-wrap: nowrap;&quot;&gt;ГАИ ГИБДД&lt;/span&gt;" style="shape=umlLifeline;perimeter=lifelinePerimeter;whiteSpace=wrap;html=1;container=1;dropTarget=0;collapsible=0;recursiveResize=0;outlineConnect=0;portConstraint=eastwest;newEdgeStyle={&quot;curved&quot;:0,&quot;rounded&quot;:0};participant=umlActor;size=60;" vertex="1" parent="1">
          <mxGeometry x="210" y="100" width="30" height="420" as="geometry" />
        </mxCell>
        <mxCell id="ZmueGVc2QgfomNV0Ne6T-7" value="Управление транспортом" style="html=1;whiteSpace=wrap;" vertex="1" parent="1">
          <mxGeometry x="530" y="100" width="110" height="50" as="geometry" />
        </mxCell>
        <mxCell id="ZmueGVc2QgfomNV0Ne6T-8" value="Водитель" style="html=1;whiteSpace=wrap;" vertex="1" parent="1">
          <mxGeometry x="900" y="100" width="110" height="50" as="geometry" />
        </mxCell>
        <mxCell id="ZmueGVc2QgfomNV0Ne6T-9" value="Транспорт&lt;div&gt;&lt;br&gt;&lt;/div&gt;" style="html=1;whiteSpace=wrap;" vertex="1" parent="1">
          <mxGeometry x="340" y="100" width="110" height="50" as="geometry" />
        </mxCell>
      </root>
    </mxGraphModel>
  </diagram>
</mxfile>
